<svg xmlns="http://www.w3.org/2000/svg" viewBox="0 0 640 512"><!--!Font Awesome Pro 6.7.2 by @fontawesome - https://fontawesome.com License - https://fontawesome.com/license (Commercial License) Copyright 2025 Fonticons, Inc.--><path d="M0 64C0 28.7 28.7 0 64 0L224 0l0 128c0 17.7 14.3 32 32 32l128 0 0 144-208 0c-35.3 0-64 28.7-64 64l0 144-48 0c-35.3 0-64-28.7-64-64L0 64zM160 368c0-8.8 7.2-16 16-16l32 0c30.9 0 56 25.1 56 56s-25.1 56-56 56l-16 0 0 32c0 8.8-7.2 16-16 16s-16-7.2-16-16l0-48 0-80zm32 16l0 48 16 0c13.3 0 24-10.7 24-24s-10.7-24-24-24l-16 0zM256 0L384 128l-128 0L256 0zm32 368c0-8.8 7.2-16 16-16l32 0c16.2 0 30.6 8.1 39.3 20.4l-22 22c-.6 .6-1.2 1.2-1.8 1.8c-1.7-7-8-12.2-15.5-12.2l-16 0 0 96 2.5 0-1.1 4.2c-2.3 9.3-1.8 19 1.4 27.8L304 512c-8.8 0-16-7.2-16-16l0-128zm65.5 124.1l15-60.1c1.4-5.7 4.3-10.8 8.4-14.9L506.2 287.9l-.1 0 71 71L447.9 488.1c-4.1 4.1-9.3 7-14.9 8.4l-60.1 15c-5.5 1.4-11.2-.2-15.2-4.2s-5.6-9.7-4.2-15.2zM528.8 265.3l29.4-29.4c15.7-15.6 41-15.6 56.6 0l14.3 14.3c15.6 15.7 15.6 41 0 56.6l-29.4 29.4-70.9-70.9z"/></svg>