<svg xmlns="http://www.w3.org/2000/svg" viewBox="0 0 576 512"><!--!Font Awesome Pro 6.7.2 by @fontawesome - https://fontawesome.com License - https://fontawesome.com/license (Commercial License) Copyright 2025 Fonticons, Inc.--><path d="M0 64C0 28.7 28.7 0 64 0L224 0l0 128c0 17.7 14.3 32 32 32l128 0 0 38.6c-26.4 7.5-50.2 20.9-70 38.8c-5.8-8.1-15.3-13.4-26-13.4L96 224c-17.7 0-32 14.3-32 32l0 64c0 17.7 14.3 32 32 32l160.7 0c-.5 5.3-.7 10.6-.7 16c0 16.6 2.3 32.7 6.6 48L240 416c-8.8 0-16 7.2-16 16s7.2 16 16 16l35.2 0c12.9 25.2 31.7 46.9 54.5 63.3c-3.2 .5-6.4 .7-9.8 .7L64 512c-35.3 0-64-28.7-64-64L0 64zM64 80c0 8.8 7.2 16 16 16l64 0c8.8 0 16-7.2 16-16s-7.2-16-16-16L80 64c-8.8 0-16 7.2-16 16zm0 64c0 8.8 7.2 16 16 16l64 0c8.8 0 16-7.2 16-16s-7.2-16-16-16l-64 0c-8.8 0-16 7.2-16 16zM96 256l192 0 0 10.8c-11.3 16-19.9 33.9-25.4 53.2L96 320l0-64zM256 0L384 128l-128 0L256 0zm32 368c0-51.4 27.4-99 72-124.7s99.4-25.7 144 0s72 73.3 72 124.7s-27.4 99-72 124.7s-99.4 25.7-144 0S288 419.4 288 368zm96-48l0 96c0 5.8 3.1 11.1 8.1 13.9s11.2 2.8 16.1-.2l80-48c4.8-2.9 7.8-8.1 7.8-13.7s-2.9-10.8-7.8-13.7l-80-48c-4.9-3-11.1-3-16.1-.2s-8.1 8.2-8.1 13.9z"/></svg>